<svg  class="svg-inline--fa fa-home fa-w-23" xmlns="http://www.w3.org/2000/svg" viewBox="0 0 512 358.7" ><path fill="#fff" d="M494.9,161.8L267.4,9.1c-6.9-4.6-15.9-4.6-22.8,0L17.1,161.8c-9.4,6.3-11.9,19-5.6,28.5 	c6.3,9.4,19,11.9,28.5,5.6L75.5,172v131.9c0,27.2,21.5,49.2,47.9,49.2h265.2c26.4,0,47.9-22.1,47.9-49.2V172l35.5,23.8 	c3.5,2.3,7.5,3.5,11.4,3.5c6.6,0,13.1-3.2,17-9.1C506.8,180.9,504.3,168.1,494.9,161.8z M395.6,144.7v159.2c0,4.5-3.1,8.2-6.9,8.2 	H123.4c-3.8,0-6.9-3.7-6.9-8.2V145.7c0-0.4-0.1-0.8-0.1-1.1L256,50.7l139.6,93.7C395.6,144.6,395.6,144.6,395.6,144.7z"></path></svg>
