<svg  class="svg-inline--fa fa-key-claim fa-w-16 links-item-icon ng-star-inserted"  xmlns="http://www.w3.org/2000/svg" viewBox="0 0 512 512" ><path fill="#fff" d="M256,51.1c113,0,204.9,91.9,204.9,204.9S369,460.9,256,460.9c-113,0-204.9-91.9-204.9-204.9S143,51.1,256,51.1 	 M256,8C119,8,8,119,8,256s111,248,248,248s248-111,248-248C504.1,119,393,8,256,8L256,8z M354.4,277.6H157.6 	c-11.9,0-21.6-9.7-21.6-21.6c0-11.9,9.7-21.6,21.6-21.6h196.9c11.9,0,21.6,9.7,21.6,21.6S366.4,277.6,354.4,277.6z M256,376L256,376 	c-11.9,0-21.6-9.7-21.6-21.6V157.6c0-11.9,9.7-21.6,21.6-21.6l0,0c11.9,0,21.6,9.7,21.6,21.6v196.9C277.6,366.4,267.9,376,256,376z"></path></svg>
