<svg class="svg-inline--fa fa-battle-tag-name-change fa-w-16 links-item-icon ng-star-inserted"  
xmlns="http://www.w3.org/2000/svg" 
viewBox="0 0 512 512" >
<path fill="#fff" 
d="M297.4,504c-15.6,0-30.2-6.1-41.2-17.3L14,241.4c-3.8-3.9-6-9.2-6-14.6V67C8,34.5,34.1,8,66.3,8h164 	c5.4,0,10.6,2.2,14.4,6.1l242.2,245.3c11,11.2,17.1,26,17.1,41.7c0,15.8-6.1,30.6-17.1,41.7c-0.1,0.1-0.2,0.2-0.3,0.3L338.5,486.9 	C327.4,497.9,312.9,504,297.4,504z M48.8,218.3l236.3,239.3c3.3,3.4,7.7,5.2,12.4,5.2s9-1.8,12.4-5.2c0.1-0.1,0.2-0.2,0.3-0.3 	l148.2-143.7c3.2-3.3,5-7.7,5-12.3c0-4.7-1.8-9.2-5.1-12.5L221.9,49.4H66.2c-9.6,0-17.5,7.9-17.5,17.7L48.8,218.3L48.8,218.3z 	 M186.2,150.2c0,21.2-17,38.3-37.9,38.3s-37.8-17.2-37.8-38.3s17-38.3,37.8-38.3S186.2,129,186.2,150.2z" ></path></svg>
