<svg class="svg-inline--fa fa-balance-gift fa-w-16 links-item-icon ng-star-inserted" xmlns="http://www.w3.org/2000/svg" viewBox="0 0 512 512" ><path fill="#fff" d="M172.6,331.9c40.8-66.7,93.1-110.4,197.9-110.4V299L504,175.8L370.5,52.6v74 	C218.2,126.6,172.6,264.2,172.6,331.9L172.6,331.9z M428,305.3c-20.8,89.2-96.6,155.6-186.8,155.6C135,460.9,48.6,369,48.6,256.1 	c0-113,86.5-204.9,192.7-204.9c32.8,0,63.6,8.8,90.6,24.2V27.4C304,14.9,273.4,8,241.2,8C112.4,8,8,119,8,256s104.4,248,233.2,248 	c126.5,0,229.5-107.2,233.1-240.8L428,305.3z"></path></svg>
