<svg class="svg-inline--fa fa-balance-add-pre-paid-card fa-w-20 links-item-icon ng-star-inserted" xmlns="http://www.w3.org/2000/svg" viewBox="0 0 640 512"><path fill="#fff" d="M551.4,504H86c-42.9,0-77.8-40.7-77.8-90.7V100.6c-1.8-23.4,4.9-45.7,18.8-63.2C41.9,18.7,63.4,8,86,8h465.3 	C595.9,8,632,48.7,632,98.7v314.5C632,463.3,595.9,504,551.4,504z M86,85.9c-4.2,0-6.5,2.3-7.3,3.4c-1.5,1.9-1.5,3.7-1.4,5.1 	c0.1,1.5,0.2,2.9,0.2,4.4v314.5c0,5.4,3,12.8,8.6,12.8h465.3c6.3,0,11.4-5.8,11.4-12.8V98.7c0-7.1-5.1-12.8-11.4-12.8H86z 	 M54.2,185.1h563V263h-563V185.1z"></path></svg>
