<svg class="svg-inline--fa fa-balance-help fa-w-16 links-item-icon ng-star-inserted"  xmlns="http://www.w3.org/2000/svg" viewBox="0 0 512 512"><path fill="#fff" d="M256,51.2c112.9,0,204.9,91.9,204.9,204.8S369,460.8,256,460.8S51.2,368.9,51.2,256S143,51.2,256,51.2 M256,8 	C119.1,8,8,119,8,256s111,248,248,248s248-111.1,248-248S393,8,256,8L256,8z M226,296.8v-3.1c0-39.2,10.7-48.2,65.4-54.7 	c28.2-3.4,38.2-11.4,38.2-30.6c0-11.7-3.8-20-11-24.1c-7.9-4.5-25.1-6.5-55-6.5c-61.6,0-68.4,3.8-68.4,37.2v6.9h-45.8V216 	c0-33.4,3.4-45.8,16.2-57.1c13.1-12.1,36.8-15.8,97-15.8c62.6,0,85.7,4.8,100.1,20.3c8.6,9.3,12.1,22.7,12.1,46.5 	c0,26.9-5.5,42-18.2,51.3c-9.3,6.2-29.9,11.7-57.5,15.1c-23.1,3.1-27.5,6.5-27.5,20.6L226,296.8L226,296.8z M273.8,380.2H224v-49.8 	h49.8V380.2z"></path></svg>
